<?xml version="1.0" encoding="UTF-8"?>
<!DOCTYPE svg PUBLIC "-//W3C//DTD SVG 1.1//EN" "http://www.w3.org/Graphics/SVG/1.1/DTD/svg11.dtd">
<!-- Creator: CorelDRAW 2020 (64-Bit) -->
<svg xmlns="http://www.w3.org/2000/svg" xml:space="preserve" width="5.99497in" height="1.03892in" version="1.1" style="shape-rendering:geometricPrecision; text-rendering:geometricPrecision; image-rendering:optimizeQuality; fill-rule:evenodd; clip-rule:evenodd"
viewBox="0 0 6291.78 1090.36"
 xmlns:xlink="http://www.w3.org/1999/xlink"
 xmlns:xodm="http://www.corel.com/coreldraw/odm/2003">
 <defs>
  <style type="text/css">
   <![CDATA[
    .fil2 {fill:#FEFEFE}
    .fil1 {fill:#EC268F}
    .fil0 {fill:aqua}
   ]]>
  </style>
 </defs>
 <g id="Layer_x0020_1">
  <metadata id="CorelCorpID_0Corel-Layer"/>
  <path class="fil0" d="M136.41 511.92l-59.58 -3.88 72.81 -498.9 226.53 0 298.04 510.17 81.61 -1.09 105.17 160.46 29.06 -168.44 -87.8 -2.19 78.2 -498.9 213.04 0 -75.28 502.81 154.26 6.27 9.43 33.71 -78.2 0 -87.65 496.21 -202.27 0 -306.08 -526.61 -115.36 0 -71.38 -123.63 -33.32 123.89 89.26 7.22 -21.58 136.19 107.88 0 0 37.75 -111.93 1.36 -47.19 342.49 -223.84 0 45.84 -446.32 45.84 0 0 -47.2 -36.4 0 0 -29.44 0.86 -11.91zm980.13 -168.24l-0.15 41.32 -41.17 0 0 -41.32 41.32 0z"/>
  <path class="fil0" d="M1595.4 531.63l-139.2 0 0 -20.56 58.98 0c35.71,-183.04 132.12,-303.02 237.52,-382.15 173.24,-130.04 432.99,-168.53 636.51,-83.98 160.56,66.69 278.26,291.77 231.94,470.87l-281.46 0 0 -16.18 65.07 0c-18.2,-379.64 -441.56,-377.01 -615.54,-124.6 -21.27,30.87 -40.24,63.63 -49.18,103.9 -4.16,18.79 -5.94,25.58 -2.8,36.62l111.11 0c-33.94,134.98 16.73,335.11 253.43,345.59 217.65,9.66 429.28,-218.62 358.75,-344.23l268.34 0c-33.41,186.09 -110.23,324.21 -240.44,415.49 -182.94,128.26 -480.63,192.58 -695.02,59.92 -134.26,-83.08 -207.72,-231.62 -198.01,-460.69zm318.36 -56.83l-0.15 41.32 -41.17 0 0 -41.32 41.32 0z"/>
  <polygon class="fil0" points="3189.14,526.3 3254.59,15.09 3494.61,15.09 3407.76,524.97 3504.66,524.97 3414.32,1053.54 3181.04,1053.54 3214.04,860.45 3174.3,860.45 3174.3,845.22 3216.47,845.22 3214.05,860.42 3267.55,547.37 3121.39,547.37 3133,526.97 "/>
  <path class="fil0" d="M4739.42 332.88c41.35,-62.49 82.7,-124.95 124.06,-187.43 -102.46,-81.8 -222.96,-102.58 -328.95,-106.98 -176.2,-7.3 -350.55,12.68 -439.55,140.22 -37,53.01 -57.66,136.94 -48.19,209.67 4.94,37.95 17.82,66.85 35.7,88.94 50.84,62.76 211.96,89.07 345.21,126.27l-61.26 0 0.69 21.54 129.33 0c67.99,24.47 118.63,55.31 125.9,101.47 19.03,120.81 -158.23,201.51 -336.78,136.39 -114.35,-41.71 -188.86,-127.31 -192.86,-129.34 -36.85,58.43 -73.72,116.87 -110.57,175.29 30.21,50.36 80.1,83.35 136.74,108.47 154.09,68.33 336.08,62.57 481.66,15.53 91.42,-29.54 166.16,-89.95 218.36,-184.43 1.34,-2.43 2.65,-4.84 3.93,-7.25l78.56 0 0 -41.32 -59.08 0c27.26,-66.91 30.7,-128.56 9.12,-189.15 -13.35,-37.51 -29.46,-59.83 -48.69,-73.96 -3.01,-2.21 -326.47,-93.36 -388.62,-129.93 -70.1,-31.94 -113.86,-54.69 -123.35,-81.08 -36.47,-101.34 55.65,-99.01 168.63,-95.53 111.51,3.43 201.27,23.84 280.02,102.61zm-376.8 322.24l-0.15 41.31 -41.17 0 0 -41.31 41.32 0zm681.56 144.8l-0.15 41.32 -41.17 0 0 -41.32 41.32 0zm-1029.42 -384.24l-0.1 25.11 -27.13 0 0 -25.11 27.23 0zm970.8 121.18l-0.15 41.32 -41.17 0 0 -41.32 41.32 0z"/>
  <path class="fil0" d="M6061.31 34.85l230.47 6.29 -278.12 346.68 47.11 0 0 21.54 -64.39 0 -84.09 104.82 117.11 0 -156.09 202.73 -51.07 358.35 -256.85 0 65.27 -366.91 -85.15 -182.06 -174.8 0 0 -17.67 91.89 0 -203.25 -471.24 247.82 0 197.71 444.71 356.42 -447.24zm-682.12 332.03l-0.08 17.81 -21.75 0 0 -17.81 21.83 0zm584.63 486.72l-0.15 41.33 -41.17 0 0 -41.33 41.32 0z"/>
  <path class="fil1" d="M49.28 629.47l-45.84 446.32 223.84 0 47.19 -342.49 111.93 -1.36 0 -37.74 -107.88 0 21.57 -136.19 -89.26 -7.22 33.32 -123.89 71.38 123.63 115.36 0 306.08 526.61 202.26 0 87.65 -496.21 78.2 0 -9.43 -33.71 -154.25 -6.27 75.28 -502.81 -213.04 0 -78.2 498.9 87.8 2.19 -29.06 168.44 -105.17 -160.46 -81.61 1.09 -298.04 -510.17 -226.53 0 -72.81 498.9 59.58 3.88 -0.86 11.91 0 29.44 36.4 0 0 47.2 -45.84 0zm3881.77 -103.76l0.68 21.54 132.64 0c144.44,73.21 468.1,88.1 487.37,210.4 19.03,120.81 -150.42,178.09 -328.96,112.99 -114.35,-41.71 -188.86,-127.31 -192.86,-129.34 -36.85,58.43 -73.71,116.87 -110.56,175.29 30.2,50.36 80.1,83.35 136.74,108.45 154.08,68.33 328.26,85.98 473.83,38.94 91.43,-29.54 166.16,-89.95 218.36,-184.43 18.04,-32.63 30.91,-63.9 38.48,-94.22l27.6 0 0 -17.81 -23.74 0c7.93,-43.26 4.77,-84.72 -9.83,-125.7 -13.35,-37.51 -29.46,-59.83 -48.69,-73.96l18.65 0 0.15 9.97 177.8 0 0 -41.32 -178.44 0 0.15 9.82 -89.85 0c-99.74,-29.75 -273.29,-82.62 -317.09,-108.39 -70.09,-31.95 -113.86,-54.69 -123.35,-81.08 -36.47,-101.34 62.05,-134.24 175.04,-130.75 111.51,3.44 214.93,13.82 293.68,92.58 41.35,-62.47 69.04,-114.92 110.4,-177.4 -102.46,-81.8 -222.96,-102.6 -328.95,-106.99 -176.21,-7.31 -356.95,47.91 -445.95,175.44 -36.99,53.02 -57.66,136.94 -48.19,209.68 4.94,37.95 17.82,66.85 35.7,88.94 4.96,6.12 11.01,11.88 17.94,17.34l-98.75 0zm-2919.37 -144.92l-0.1 25.11 -27.13 0 0 -25.11 27.23 0zm753.49 155.34l-102.21 0c-0.05,-6.6 1.66,-13.76 4.4,-26.13 8.94,-40.27 27.91,-73.03 49.18,-103.9 173.97,-252.41 597.34,-255.04 615.54,124.6l-65.07 0 0 16.18 114.95 0c55.54,127.23 -151.02,344.26 -363.36,334.83 -236.69,-10.48 -287.36,-210.6 -253.42,-345.59zm-253.34 26.56c-7.06,223.13 66.2,368.39 198.4,450.2 214.39,132.66 512.07,68.33 695.02,-59.92 130.21,-91.28 207.02,-229.39 240.44,-415.49l-94.95 0c39.94,-177.5 -76.44,-395.94 -234.2,-461.48 -203.52,-84.55 -463.27,-46.06 -636.51,83.98 -105.41,79.12 -201.81,199.11 -237.53,382.14l-58.98 0 0 20.56 128.32 0zm329.24 -88.31l-0.15 41.31 -41.17 0 0 -41.31 41.32 0zm1260.92 76.78l65.45 -511.21 240.02 0 -86.85 509.87 96.91 0 -90.35 528.58 -233.27 0 30.77 -180.04 -37.51 0 0 -41.32 44.57 0 48.67 -284.81 -146.16 0 11.61 -20.4 56.14 -0.67zm1177.41 103.95l-0.15 41.31 -41.17 0 0 -41.31 41.32 0zm-328.23 -216.47l-0.15 41.31 -41.17 0 0 -41.31 41.32 0zm1369.19 -52.45l-0.15 41.32 -41.17 0 0 -41.32 41.32 0zm647.08 -353.35l223.21 6.71 -368.11 505.68 113.93 0 61.17 0 0 21.54 -77.85 0 -131.64 169.94 -48.53 338.45 -244.07 0 62.02 -346.54 -80.59 -171.28 -178.35 0 -1.19 -28.68 94.39 0 -201.05 -493.13 240.01 0 191.48 474.64 345.18 -477.33zm-144.1 828.87l-0.08 17.81 -21.75 0 0 -17.81 21.83 0zm70.47 -8.11l-0.15 41.32 -41.17 0 0 -41.32 41.32 0z"/>
  <path class="fil2" d="M1070.76 372.68l-0.15 41.32 -41.17 0 0 -41.32 41.32 0zm-979.94 256.79l-45.84 446.32 223.84 0 47.19 -342.49 111.93 -1.36 0 -37.74 -107.88 0 21.57 -144.46 -87.88 -4.08 31.94 -118.76 71.38 123.63 115.36 0 306.08 526.61 202.26 0 87.65 -496.21 78.2 0 -9.43 -33.71 -154.25 -6.27 75.28 -502.81 -213.04 0 -78.2 498.9 87.8 2.19 -29.06 168.44 -105.17 -160.46 -81.61 1.09 -298.04 -510.17 -226.53 0 -72.81 498.9 59.58 3.88 -0.86 11.91 0 29.44 36.4 0 0 47.2 -45.84 0z"/>
  <polygon class="fil2" points="3143.54,551.17 3208.98,39.96 3449,39.96 3362.15,549.83 3459.06,549.83 3368.71,1078.41 3135.44,1078.41 3166.21,898.37 3128.7,898.37 3128.7,857.04 3173.27,857.04 3221.94,572.24 3075.79,572.24 3087.4,551.84 "/>
  <path class="fil2" d="M5359.85 386.2l-0.15 41.32 -41.17 0 0 -41.32 41.32 0zm237.21 342.44l-62.02 346.54 244.07 0 48.53 -338.45 148.32 -191.48 -113.93 0 98.92 -135.89 61.05 0 0 -21.54 -45.37 0 253.51 -348.25 -223.21 -6.71 -345.18 477.33 -191.47 -474.64 -240.01 0 192.18 493.69 -84.33 -1.24 0 29.36 178.35 0 80.59 171.28zm316.51 124.97l-0.15 41.32 -41.17 0 0 -41.32 41.32 0z"/>
  <path class="fil2" d="M1872.12 474.39l-0.15 41.31 -41.16 0 0 -41.31 41.31 0zm-318.75 88.31l-128.32 0 0 -20.56 58.98 0c35.72,-183.04 132.12,-303.02 237.53,-382.14 173.24,-130.04 432.99,-168.53 636.51,-83.98 157.76,65.54 274.14,283.98 234.2,461.48l94.95 0c-33.41,186.09 -110.23,324.2 -240.44,415.49 -182.94,128.25 -480.63,192.58 -695.02,59.92 -132.2,-81.8 -205.46,-227.07 -198.4,-450.2zm870.13 -15.81l-114.95 0 0 -16.18 65.07 0c-18.2,-379.64 -441.56,-377.01 -615.54,-124.6 -21.27,30.87 -40.24,63.63 -49.18,103.9 -2.74,12.36 -4.44,19.53 -4.4,26.13l102.21 0c-33.94,134.98 16.73,335.1 253.43,345.59 212.34,9.43 418.89,-207.6 363.36,-334.83z"/>
  <path class="fil2" d="M3992.72 438.65l-0.15 41.31 -41.17 0 0 -41.31 41.32 0zm724.02 -109.93c41.36,-62.47 82.71,-124.95 124.06,-187.42 -102.46,-81.8 -222.96,-102.6 -328.95,-106.99 -176.21,-7.31 -356.95,47.91 -445.95,175.44 -36.99,53.02 -57.66,136.94 -48.19,209.68 4.94,37.95 17.82,66.85 35.7,88.94 4.95,6.12 11,11.87 17.93,17.34l-137.85 0 0.69 21.54 171.73 0c144.44,73.21 468.1,88.1 487.37,210.4 19.03,120.81 -156.41,168.7 -334.96,103.58 -114.35,-41.71 -188.86,-127.31 -192.86,-129.34 -36.85,58.43 -73.71,116.87 -110.57,175.29 30.21,50.36 80.1,83.34 136.74,108.46 154.08,68.33 334.26,95.38 479.83,48.34 91.43,-29.54 166.16,-89.95 218.36,-184.43 7.25,-13.12 13.66,-26.02 19.24,-38.73l94.73 0 0 -41.32 -79.39 0c16.55,-54.98 16.1,-106.7 -2.05,-157.67 -10.59,-29.74 -22.91,-49.93 -37.14,-64.07l60.63 0 0 -41.33 -176.73 0c-101.17,-30.49 -244.79,-75.38 -284.07,-98.5 -70.09,-31.95 -113.86,-54.69 -123.35,-81.08 -36.47,-101.34 62.05,-134.24 175.04,-130.75 111.51,3.44 201.26,23.85 280.01,102.6zm229.23 207.72l-0.15 41.33 -41.17 0 0 -41.33 41.32 0zm58.63 263.07l-0.15 41.32 -41.17 0 0 -41.32 41.32 0zm-692.89 -144.39l-0.15 41.31 -41.17 0 0 -41.31 41.32 0z"/>
 </g>
</svg>
